<svg xmlns="http://www.w3.org/2000/svg" xmlns:xlink="http://www.w3.org/1999/xlink" width="48" height="24" viewBox="0 0 48 24">
  <defs>
    <clipPath id="clip-Artboard_1">
      <rect width="48" height="24"/>
    </clipPath>
  </defs>
  <g id="Artboard_1" data-name="Artboard – 1" clip-path="url(#clip-Artboard_1)">
    <path id="Union_13" data-name="Union 13" d="M11.507,14.387a1,1,0,0,1,0-1.414l4.426-4.425H1a1,1,0,0,1,0-2H15.933L11.507,2.121A1,1,0,0,1,12.922.707L19.055,6.84h0l.016.016h0a1,1,0,0,1,.049,1.325l-.005.006-.01.011-.012.014,0,0-.04.042-6.128,6.128a1,1,0,0,1-1.415,0Z" transform="translate(26.326 4.453)" fill="#2430f5"/>
    <path id="Union_14" data-name="Union 14" d="M11.507,14.387a1,1,0,0,1,0-1.414l4.426-4.425H1a1,1,0,0,1,0-2H15.933L11.507,2.121A1,1,0,0,1,12.922.707L19.055,6.84h0l.016.016h0a1,1,0,0,1,.049,1.325l-.005.006-.01.011-.012.014,0,0-.04.042-6.128,6.128a1,1,0,0,1-1.415,0Z" transform="translate(2.326 4.453)" fill="#fff"/>
  </g>
</svg>
