<?xml version="1.0" encoding="utf-8"?>
<!-- Generator: Adobe Illustrator 27.0.0, SVG Export Plug-In . SVG Version: 6.00 Build 0)  -->
<svg version="1.1" id="Layer_1" xmlns="http://www.w3.org/2000/svg" xmlns:xlink="http://www.w3.org/1999/xlink" x="0px" y="0px"
	 viewBox="0 0 817.5083008 137.2055969" style="enable-background:new 0 0 817.5083008 137.2055969;" xml:space="preserve">
<style type="text/css">
	.st0{fill:#FFFFFF;}
	.st1{fill:url(#SVGID_1_);}
	.st2{fill:url(#SVGID_00000107552045689090638300000006287004053404663461_);}
	.st3{fill:url(#SVGID_00000144333048227339737060000017712529993417438343_);}
</style>
<g>
	
		<linearGradient id="SVGID_1_" gradientUnits="userSpaceOnUse" x1="64.4273758" y1="134.0293579" x2="15.8142166" y2="78.4714737" gradientTransform="matrix(1 0 0 -1 0 140)">
		<stop  offset="0" style="stop-color:#00DCE6"/>
		<stop  offset="0.9993386" style="stop-color:#2130FF"/>
	</linearGradient>
	<path class="st1" d="M61.5184174,0.2663402L3.3653288,58.419426c-2.1492782,2.1492805-3.3572695,5.0622101-3.3574371,8.1004333
		L0.0000015,86.239296c-0.0013774,0.8020935,0.9685841,1.2032852,1.5363001,0.6355667l58.1541061-58.1541061
		c2.1494484-2.1494503,3.3564034-5.0634708,3.3584671-8.1015244L63.0569344,0.899683
		C63.0551186,0.0986629,62.0861664-0.3014101,61.5184174,0.2663402z"/>
	
		<linearGradient id="SVGID_00000015319602838056365180000010432971311692483500_" gradientUnits="userSpaceOnUse" x1="91.0091705" y1="110.7702942" x2="42.3960114" y2="55.2124062" gradientTransform="matrix(1 0 0 -1 0 140)">
		<stop  offset="0" style="stop-color:#00DCE6"/>
		<stop  offset="0.9993386" style="stop-color:#2130FF"/>
	</linearGradient>
	<path style="fill:url(#SVGID_00000015319602838056365180000010432971311692483500_);" d="M99.2270737,37.0748405
		l-19.7192383,0.0078087c-3.0373306,0.0011139-5.9524155,1.2092438-8.1015778,3.3584099L13.2530022,98.5943069
		c-0.566659,0.566658-0.1654425,1.5366516,0.6356764,1.5364075l19.7193604-0.0079269
		c3.0370216-0.0013657,5.9521637-1.2093277,8.1003799-3.3575439l58.1541748-58.1541748
		C100.4303436,38.0433159,100.0301819,37.074276,99.2270737,37.0748405z"/>
	
		<linearGradient id="SVGID_00000088119412148246847650000002302438884471943307_" gradientUnits="userSpaceOnUse" x1="117.5935364" y1="87.5089645" x2="68.9803772" y2="31.9510765" gradientTransform="matrix(1 0 0 -1 0 140)">
		<stop  offset="0" style="stop-color:#00DCE6"/>
		<stop  offset="0.9993386" style="stop-color:#2130FF"/>
	</linearGradient>
	<path style="fill:url(#SVGID_00000088119412148246847650000002302438884471943307_);" d="M111.5833206,50.3312416
		l-58.1530609,58.1530571c-2.1493073,2.1493073-3.3572922,5.0622406-3.3575478,8.1003799l-0.007946,19.719368
		c-0.0012932,0.8021851,0.9685287,1.2032318,1.5362473,0.6355133l58.1541061-58.1541061
		c2.1494522-2.1494522,3.3563538-5.0635223,3.3585815-8.1014099l0.0080872-19.7195206
		C113.1198273,50.1633606,112.1510696,49.7634811,111.5833206,50.3312416z"/>
</g>
</svg>
