<?xml version="1.0" encoding="utf-8"?>
<!-- Generator: Adobe Illustrator 27.0.0, SVG Export Plug-In . SVG Version: 6.00 Build 0)  -->
<svg version="1.1" id="Layer_1" xmlns="http://www.w3.org/2000/svg" xmlns:xlink="http://www.w3.org/1999/xlink" x="0px" y="0px"
	 viewBox="0 0 817.5083008 137.2055969" style="enable-background:new 0 0 817.5083008 137.2055969;" xml:space="preserve">
<style type="text/css">
	.st0{fill:#FFFFFF;}
	.st1{fill:url(#SVGID_1_);}
	.st2{fill:url(#SVGID_00000180353728332532124090000012013161290218505405_);}
	.st3{fill:url(#SVGID_00000140704726738532642550000016173656848575152570_);}
</style>
<g id="bjWLzZ.tif">
	<g>
		<path class="st0" d="M557.5441895,91.2079697V30.3811626c0.4091187-0.333374,0.8141479-0.2345924,1.1900635-0.2344913
			c8.4824219,0.0022945,16.9656982-0.0564728,25.4470825,0.0433655c6.5942993,0.0776196,12.7404175,1.8418427,18.1775513,5.6625366
			c5.119812,3.5977058,8.6359253,8.4291382,10.5018921,14.4109726c1.3803101,4.4247742,1.7785034,8.9528275,1.3864746,13.5815697
			c-0.3512573,4.1474686-1.2857666,8.1227036-3.2337036,11.7963028
			c-3.9238892,7.4001617-10.0808105,12.0532227-18.0873413,14.3078308c-3.2608643,0.9182434-6.6044922,1.3340607-9.9958496,1.334259
			c-8.0497437,0.000473-16.0994263,0.0022583-24.1491699-0.0010605
			C558.4014893,91.2822876,558.0218506,91.2378998,557.5441895,91.2079697z M570.1092529,81.0087509
			c0.4852905,0.0231171,0.9072876,0.0598145,1.3292847,0.0606308c2.7247925,0.0052643,5.449646-0.0087509,8.1743774,0.0062637
			c2.2518311,0.0124054,4.4943848-0.0811996,6.711853-0.4999619c6.8855591-1.3003311,11.6004028-5.1831512,13.7254639-11.9015274
			c1.68573-5.3294792,1.6190796-10.7520218-0.0258179-16.0849876c-1.1803589-3.8268814-3.4359741-6.9426003-6.8615723-9.1432076
			c-3.0682983-1.9710846-6.473999-2.8915558-10.0584106-3.0135956c-4.1043091-0.1397438-8.2163086-0.0557709-12.3249512-0.0641594
			c-0.2086792-0.0004272-0.4362793-0.0288582-0.670166,0.2168694v40.4236832L570.1092529,81.0087509z"/>
		<path class="st0" d="M678.3225098,84.6434708c-0.6077271-0.2800751-0.9181519,0.0475998-1.2229004,0.3555374
			c-3.6398315,3.6780472-8.1627808,5.0003357-13.2023315,5.0052567c-4.7141113,0.0046158-9.0506592-1.1949463-12.9468384-3.8929443
			c-3.6755981-2.5452652-6.269043-5.9452209-7.7366333-10.1400833c-2.0144653-5.7581863-1.9890747-11.5978394,0.1893921-17.2700157
			c2.8314209-7.3721924,8.2171631-11.9588585,16.0368652-13.4099884c4.4260254-0.8213463,8.789917-0.4660187,12.9025879,1.5819473
			c2.1557617,1.073513,3.946167,2.6362305,5.6835938,4.2702065c0.4663086,0.4384918,0.9143677,0.9520645,1.871521,0.7555313
			c1.2570801-1.5169296,0.7985229-3.6029778,1.3308105-5.4146194c0.8995972-0.2568283,6.2735596-0.3366928,8.2559204-0.1180153
			c0.3867798,0.4316711,0.2223511,0.9757919,0.2234497,1.4718094c0.0123901,5.7547302,0.0078735,11.5094948,0.0078735,17.2642479
			c0,7.7451248-0.0056152,15.4902573,0.003479,23.2353592c0.0026855,2.2092972-0.0933838,4.4140396-0.5163574,6.5814972
			c-1.2658691,6.4873962-4.873291,11.1442947-10.9609985,13.8178482c-3.0471802,1.3382416-6.2445068,1.9191513-9.564209,2.0842667
			c-3.4888916,0.1735229-6.9204712-0.0684814-10.2503052-1.0960236
			c-7.6799316-2.3699188-12.8120117-7.2848282-14.8556519-15.1914978c-0.0420532-0.1627731-0.0446167-0.3357849-0.0646362-0.4963379
			c0.8928833-0.3087158,9.6612549-0.3990707,11.3607178-0.1268616c0.4391479,0.5460129,0.5238647,1.2610931,0.8474121,1.8714294
			c1.2265015,2.3135147,3.0632935,3.9837265,5.4630127,4.948761c3.9422607,1.5853806,7.9327393,1.604393,11.8649902-0.0617599
			c2.5054321-1.0615845,4.0565186-3.0389023,4.8566284-5.5922165c0.4001465-1.2770996,0.6320801-2.6016312,0.6228638-3.9584351
			c-0.0120239-1.7737885,0.0125732-3.5478058,0.0144653-5.3217239c0.0004272-0.3839569,0.0358276-0.7804565-0.2148438-1.1531906
			L678.3225098,84.6434708z M666.2312012,80.6009445c5.0149536,0.1681671,9.6430054-2.7128906,11.4359131-7.3877029
			c1.2487793-3.2560501,1.348877-6.5808792,0.3331909-9.9127655c-1.0254517-3.3636971-3.1323853-5.8074455-6.3425903-7.3065758
			c-2.2297974-1.0413094-4.578125-1.2827034-6.9698486-1.0525589c-3.9287109,0.3780441-7.0957642,2.1280937-9.1664429,5.5685959
			c-2.1265259,3.5333138-2.3839722,7.3403435-1.3804932,11.2622337c0.5687866,2.2230606,1.6911011,4.1546173,3.4048462,5.7098923
			c2.4632568,2.2354584,5.3959351,3.1774292,8.6854858,3.1188812H666.2312012z"/>
		<path class="st0" d="M209.1705017,46.5681038c-0.9144287,0.3085785-9.2585449,0.4225159-11.638092,0.1572952
			c-0.3686829-0.3349609-0.3850708-0.825985-0.4792786-1.2818604c-0.874115-4.2302284-4.0622101-6.9616928-8.366272-7.1682167
			c-2.1289368-0.10215-4.240448-0.0887337-6.2362671,0.8220253c-2.5139465,1.1471901-4.0723419,2.9871521-4.3087769,5.8274994
			c-0.2581482,3.1012459,0.8538361,5.4913864,3.5795898,7.0739212c2.0447083,1.1871262,4.2937775,1.8005257,6.5679016,2.3473396
			c4.1691132,1.0024643,8.2716675,2.2056236,12.1077881,4.1697006c2.5647888,1.313179,4.8769379,2.9776649,6.7303925,5.2037468
			c2.5493164,3.0618248,3.5303802,6.6487465,3.5503082,10.5896034c0.0270081,5.3389282-1.8519897,9.7957153-5.9291229,13.2655334
			c-2.4470978,2.0825882-5.3126831,3.3973541-8.4019165,4.1960907c-5.9946747,1.5499725-12.0112305,1.5061264-17.929184-0.2740936
			c-6.9012909-2.0760574-11.9108429-6.3574295-14.4141998-13.2630234c-0.6615753-1.8249817-1.0549011-3.7273407-1.1603546-5.6653519
			c0.8857117-0.3526535,9.6809845-0.4764557,12.0256195-0.1823502c0.3730316,0.39328,0.3692169,0.927948,0.4774628,1.4269028
			c1.1052704,5.0949249,5.116394,8.5992126,10.3179016,9.153801c2.1775513,0.2321854,4.3204041,0.267807,6.4248505-0.3574371
			c2.8042145-0.8331604,5.079895-2.363533,5.7861786-5.3793259c0.9020538-3.8517075-0.3204193-6.7136536-3.129837-8.4931564
			c-2.0752258-1.3144608-4.3944855-2.0170746-6.7352905-2.6368027c-3.0070801-0.7961273-6.0464935-1.4740295-8.969696-2.5614967
			c-2.8507385-1.0605125-5.5667725-2.3618889-7.9351349-4.3182182c-2.5540314-2.1096916-4.286438-4.7356186-5.0032349-7.9747467
			c-0.8281555-3.7423363-0.8002625-7.4611626,0.5516205-11.1038208c1.3669739-3.6833076,3.8421783-6.4199448,7.2096863-8.3763485
			c2.8475342-1.6543179,5.9426727-2.5352154,9.2021637-2.9116459c4.2067413-0.4858265,8.3660126-0.3368721,12.4691315,0.7902756
			c7.4438019,2.044857,12.4971619,7.7854805,13.5306854,15.4080276c0.0677032,0.4993477,0.3600464,0.9942703,0.1053925,1.5161362
			L209.1705017,46.5681038z"/>
		<path class="st0" d="M282.1078491,91.2103653h-11.2384644V28.0029316
			c1.08255-0.2827969,10.0553284-0.3049984,11.2670288-0.0378571c0.2676392,0.4738159,0.144989,1.0036163,0.1456604,1.5096283
			c0.0090637,6.7943516,0.0024719,13.5887241,0.0124817,20.3830738c0.0008545,0.5905991-0.1466675,1.2192268,0.2745361,1.7624016
			c0.6465759,0.3768425,1.0488586-0.0192947,1.424408-0.4665146c0.8076477-0.9617577,1.6401978-1.8923378,2.6142578-2.6989479
			c2.5119324-2.0801048,5.3868103-3.1975899,8.6279602-3.5181503c2.706604-0.2676926,5.3573914-0.0859795,7.9461365,0.711628
			c4.1790466,1.2875862,7.0868835,4.0347404,8.8562622,7.9965897c1.0502319,2.3515739,1.572876,4.8320389,1.7191772,7.4083557
			c0.3461914,6.0974884,0.0927429,12.1986008,0.1593933,18.2975464c0.0378113,3.4616852,0.0115662,6.9241333,0.0011597,10.3862
			c-0.0014038,0.4639206,0.1144104,0.9523621-0.2096252,1.4668655h-11.0669556
			c-0.3029785-0.510376-0.1867676-1.039772-0.1872864-1.5423355c-0.0079346-7.8329773,0.0241699-15.6661606-0.0253296-23.498848
			c-0.0133057-2.1083603-0.1022339-4.2355118-0.9407349-6.2420349c-1.2128906-2.9023438-3.3293457-4.5005302-6.4950562-4.794323
			c-5.2968445-0.4915543-9.1818237,2.1991539-11.1220398,6.725563c-1.0722656,2.5015297-1.5271301,5.1478081-1.551178,7.8404655
			c-0.0591431,6.6207809-0.0244751,13.2423782-0.036499,19.8636246c-0.0009155,0.5095596,0.0996094,1.0345383-0.175415,1.6544876
			L282.1078491,91.2103653z"/>
		<path class="st0" d="M499.1204529,72.4728699h-34.5641174c0.0023193,4.4949722,2.9441223,8.7024689,7.2584229,10.2404709
			c3.6799927,1.3118744,7.3862305,1.2068481,10.9802856-0.4351807c2.0467834-0.9351425,3.5475159-2.4349442,4.4372559-4.5215073
			c0.0670471-0.1573105,0.166626-0.3007431,0.2927246-0.5245056h11.1752319
			c-0.1988831,1.7472382-0.8469238,3.2861328-1.6377869,4.7506943c-2.994812,5.5461197-7.7920837,8.6851883-13.817627,10.0292511
			c-5.2007141,1.1600723-10.3937683,1.0401077-15.466095-0.7139969c-5.6531982-1.9549942-9.8692017-5.5925751-12.5153809-10.9951172
			c-1.5637207-3.1925659-2.3308716-6.5619354-2.4651489-10.1178055c-0.1335144-3.5366135,0.1955872-6.9889488,1.401062-10.3252411
			c1.3179321-3.6474266,3.4203186-6.7719421,6.3507996-9.3325844c3.5620422-3.1125069,7.7362366-4.9142609,12.3841858-5.4791794
			c5.2416992-0.637085,10.3630676-0.0667114,15.1436157,2.3695717c3.9295959,2.0026245,6.9451904,4.9556313,8.9518433,8.9057999
			c2.5205994,4.9617577,2.958313,10.2322845,2.3112488,15.6616287c-0.0097046,0.0812378-0.0684814,0.1566315-0.220459,0.4876938
			L499.1204529,72.4728699z M464.5824585,64.4554443h23.7857971c-0.3006897-3.7126198-1.8226929-6.6217422-4.8585815-8.6527328
			c-2.2694397-1.5182266-4.823761-2.0611954-7.526947-1.9240036c-4.586853,0.2327843-8.1018372,2.2421112-10.260437,6.3661652
			c-0.6562805,1.2537956-1.1481934,2.5953941-1.139801,4.2105713H464.5824585z"/>
		<path class="st0" d="M416.5440369,72.4797821h-34.7098083c0.0028076,1.2490616,0.2633362,2.2815323,0.6193237,3.2865829
			c1.5263367,4.3089523,4.6165771,6.8233337,9.0670166,7.5768051c3.0325317,0.5134201,6.0325317,0.259407,8.8431091-1.165741
			c1.8743286-0.9504013,3.3276672-2.3091965,4.1464539-4.2818527c0.0995789-0.2399368,0.2015991-0.477356,0.4629211-0.6655197
			h10.8726196c0.2319641,0.2632446,0.1930542,0.4825058,0.1386108,0.6847992
			c-1.5048828,5.5910034-4.8925171,9.6543198-10.0504761,12.2250748c-3.1332703,1.5616379-6.4790955,2.3037567-9.9822998,2.507988
			c-4.8449402,0.2824478-9.4764709-0.4093781-13.8265076-2.6247101c-4.0535278-2.0643158-7.1340027-5.1364594-9.2436218-9.1591644
			c-1.6066895-3.0637054-2.4124451-6.3399124-2.6862793-9.7972946c-0.3018799-3.8110199,0.0643005-7.5149345,1.3382263-11.1029167
			c1.9321899-5.4420624,5.4478455-9.5822411,10.5489807-12.3124046c3.0866699-1.6520195,6.3925476-2.5202103,9.9101257-2.7301598
			c4.4842834-0.2676506,8.7934875,0.3038368,12.8726807,2.2275047c5.0503235,2.3816261,8.5508118,6.2320061,10.5375366,11.4325485
			c1.625946,4.2561035,1.7245483,8.6910553,1.3587952,13.1629791c-0.0136108,0.166275-0.0941162,0.3270798-0.2174683,0.7354736
			L416.5440369,72.4797821z M405.6482849,64.4873886c-0.143219-3.7214661-1.9468079-6.892437-4.9279175-8.7789574
			c-2.2690125-1.4358826-4.7662048-1.9115067-7.4228516-1.841217c-5.2192688,0.1380997-9.5703735,3.4456978-11.0335388,8.4573708
			c-0.2005005,0.6867256-0.4249573,1.3728676-0.3384094,2.1628036H405.6482849z"/>
		<path class="st0" d="M784.612854,62.69347c0.4986572-3.3025093-1.4137573-7.3095207-5.0984497-8.357769
			c-2.6296997-0.7481003-5.2258911-0.6931305-7.7401733,0.3753815c-1.9915771,0.8463402-3.3945923,2.3436127-4.2419434,4.3458138
			c-0.1505127,0.3556633-0.1981201,0.7574844-0.4719849,1.0581665c-0.9729004,0.2468948-9.9249878,0.2848434-11.3129883,0.028801
			c0.1553345-1.6382523,0.7327271-3.1545753,1.4348145-4.6158218c2.1044922-4.3794212,5.4783936-7.4275246,10.0164795-9.0924988
			c6.0122681-2.2058372,12.1189575-2.2800941,18.1621704-0.1791763c5.331543,1.8535538,8.4612427,5.7868576,9.8220825,11.1898003
			c0.5195923,2.06287,0.7330933,4.1725616,0.7364502,6.2954979c0.013855,8.7384453,0.0077515,17.4769249,0.0032349,26.2153816
			c-0.0001831,0.3804779,0.0795288,0.7788391-0.2164307,1.2680969c-2.6669312,0.1192551-5.4077759,0.0627136-8.1799927,0.0263596
			c-0.5811157-1.9080582-0.0186157-4.070694-1.4368896-5.5991364c-0.9342651-0.0248947-1.3104248,0.5352707-1.710022,1.0365829
			c-0.8928833,1.1203156-1.8641968,2.1570053-3.0099487,3.0268631c-2.2006226,1.6706848-4.7249146,2.5503845-7.4297485,2.8004837
			c-3.0606689,0.28302-6.1217041,0.2496643-9.1230469-0.6416168c-5.6280518-1.6713257-9.3599243-5.142189-10.3126831-11.0811005
			c-0.6131592-3.8224335-0.1930542-7.517067,2.3892822-10.6720352c1.7580566-2.1478424,4.0739136-3.4567261,6.6606445-4.3108597
			c2.2633667-0.747345,4.5969238-1.1665421,6.9763184-1.3737106c4.0866089-0.3558273,8.1917725-0.5437851,12.2399292-1.271801
			c0.6329346-0.1138229,1.2739258-0.198452,1.8427734-0.4717026H784.612854z M784.7364502,70.3301163
			c-0.2550659-0.0212708-0.3460693-0.0514297-0.4249268-0.0321808c-2.8643188,0.6985321-5.7867432,0.9817657-8.711853,1.2743988
			c-2.1027832,0.2103729-4.2158813,0.3922806-6.2306519,1.1387024c-3.0110474,1.1155167-4.1378174,3.416893-3.3446045,6.7715454
			c0.5581665,2.3603592,2.3115845,3.5652542,4.520813,4.1872787c1.9477539,0.5484009,3.9401855,0.5603561,5.9105835,0.1909256
			c2.5777588-0.4833298,4.6951904-1.7722473,6.1074829-4.0228424c1.8094482-2.8835068,2.2895508-6.0882034,2.1732178-9.5078201
			L784.7364502,70.3301163z"/>
		<path class="st0" d="M333.8990173,60.2245636h-10.9488525c-0.3155518-0.3437119-0.2081604-0.648243-0.1365662-0.9330482
			c1.5046387-5.9843483,5.0951233-10.2308617,10.760376-12.6389427c3.9336243-1.6720314,8.0817261-2.0769806,12.3287964-1.7377357
			c2.257019,0.1802864,4.458374,0.5614471,6.5729065,1.3736992c5.371582,2.0633621,8.497406,6.0444489,9.7736816,11.5628166
			c0.4295044,1.8571281,0.5801392,3.7510757,0.5772095,5.662529c-0.0133972,8.8266487-0.0029907,17.6533241-0.0076904,26.4799843
			c-0.0002136,0.3779526,0.0887756,0.7772827-0.1925964,1.2092361h-8.0654602
			c-0.3622742-0.5166397-0.3525391-1.0893555-0.3625793-1.6400986c-0.0151062-0.8292923-0.1823425-1.6348343-0.3471069-2.4362411
			c-0.129425-0.6295471-0.3249512-1.2764587-1.1195068-1.5044174c-0.9588318,0.2092285-1.3934326,1.0798569-1.9536133,1.7552643
			c-1.3519897,1.6301575-2.9810791,2.878952-4.879425,3.7861557c-1.4951477,0.7145233-3.084137,1.1560211-4.7237549,1.3216019
			c-3.6860352,0.3722305-7.3407898,0.2772217-10.8551025-1.0914612c-5.651062-2.2009048-8.6950073-6.3404312-9.0772095-12.3872452
			c-0.2055664-3.2523956,0.5090332-6.275795,2.5953369-8.8717728c1.4463806-1.7996902,3.329895-2.9977036,5.4456177-3.8557129
			c2.5444641-1.0318756,5.2027283-1.5779877,7.9289551-1.8231583c4.5587158-0.409996,9.1452026-0.5706177,13.6431274-1.5253944
			c0.2923584-0.0620537,0.6098022-0.0513954,0.8769836-0.3960724c-0.1008911-2.7355461-0.661377-5.3268623-3.1109314-7.1144905
			c-0.9970398-0.7276268-2.1207275-1.1603203-3.3286438-1.3667488c-2.3078918-0.3944206-4.5753479-0.2694016-6.7237549,0.728405
			c-1.9226074,0.8929367-3.2962952,2.3411369-4.0826416,4.3266945c-0.1411438,0.3564148-0.2038574,0.7535248-0.5875854,1.1161461
			L333.8990173,60.2245636z M351.7767944,70.3823853c-0.192688-0.0597-0.281189-0.1207657-0.350769-0.1038589
			c-3.7080688,0.9018173-7.5099792,1.112114-11.2807007,1.5597687c-1.7145691,0.2035446-3.4196777,0.5200577-4.9527588,1.4083939
			c-1.1807556,0.6841812-1.9480591,1.6599197-2.2961731,2.9954529c-0.6185608,2.3728561,0.2055359,5.6840744,3.353241,6.9532928
			c3.4660645,1.3975601,6.9211121,1.2320633,10.2669983-0.47229c0.8138428-0.4145737,1.5220337-0.9988251,2.1145325-1.6959534
			C351.2623901,77.9312363,351.6974182,74.2054977,351.7767944,70.3823853z"/>
		<path class="st0" d="M252.2559052,73.4304886c1.7737274-0.2568283,10.2810211-0.1794205,11.2306671,0.1062164
			c-0.2265015,3.5204468-1.3574829,6.7515488-3.3441772,9.6521912c-3.5990906,5.2547989-8.664093,8.1826782-14.9145813,9.1443329
			c-4.7741394,0.7345123-9.4888763,0.5077896-14.0644836-1.0997391c-5.6663208-1.990715-9.9728851-5.6125641-12.7125397-11.0061874
			c-1.5279694-3.0081253-2.2957458-6.2009583-2.5108795-9.5772705c-0.2343903-3.6784592,0.1425934-7.2500496,1.3860626-10.7085419
			c1.6757355-4.6607323,4.5605164-8.3919525,8.7308807-11.1153183c3.1742249-2.0728607,6.6567383-3.3317795,10.3939972-3.7566833
			c5.2255096-0.5941086,10.3769836-0.2534065,15.2096863,2.0706673c6.2534027,3.0072823,10.1251068,7.9336624,11.5827179,14.7276611
			c0.1517334,0.7072334,0.1747437,1.4420891,0.2557373,2.1489601c-0.9605713,0.2915649-9.4759674,0.3691101-11.2223358,0.1123962
			c-0.2256927-0.4219933-0.3283234-0.9229469-0.4599915-1.4201736c-1.0820465-4.0864983-4.7584534-7.2463303-8.9602966-7.8095093
			c-2.1345367-0.2860947-4.233902-0.2337341-6.2910004,0.3890381c-4.0737457,1.2332916-6.7485046,3.9686356-8.077179,7.9527359
			c-1.3908844,4.1706314-1.319809,8.3588791,0.5260925,12.3942184c1.8943787,4.141304,5.1769562,6.4748459,9.7046967,7.0536652
			c2.4978333,0.3193207,4.9228516,0.069252,7.2218781-0.9754639c3.0611267-1.3910294,4.995224-3.766861,5.9051361-6.9913025
			c0.0821533-0.2911377,0.1580963-0.5840912,0.2447357-0.8738708c0.0365753-0.1223221,0.093399-0.2385941,0.1651917-0.4180145
			L252.2559052,73.4304886z"/>
		<path class="st0" d="M451.5049744,55.677475h-11.7716064v35.3233032
			c-1.0049438,0.3409882-8.6794128,0.4499664-11.2528687,0.1795883c-0.1278687-1.6326218-0.0371399-3.3038635-0.0537415-4.9688339
			c-0.0168152-1.6874084-0.0037231-3.3751068-0.0037231-5.0626831V55.7166138h-8.3044128
			c-0.3233643-1.0533295-0.3885803-7.7253952-0.1116943-9.3954048h8.1710205
			c0.3683167-0.5998726,0.2341919-1.1298294,0.2385559-1.6309319c0.0220337-2.5494461-0.0488586-5.0955124,0.5132751-7.6175041
			c1.2655029-5.6778355,4.9329834-9.21064,10.6726379-10.2893639c3.6735535-0.6904144,7.3072815-0.5814285,10.9299316,0.285326
			c0.3778381,0.0904045,0.7527161,0.1998959,1.1192322,0.3283043c0.1992798,0.0698051,0.3780212,0.1981258,0.645813,0.3432751
			c0.0955505,2.8159943,0.0275879,5.6460533,0.0466614,8.3971062c-0.5968628,0.2635155-0.9502869,0.0430374-1.3180542-0.0442696
			c-2.2145691-0.5257759-4.4385681-0.6461182-6.6803589-0.1753616c-2.2030029,0.4626045-3.5906372,1.8096008-4.2142639,3.9388237
			c-0.6036987,2.0613632-0.485321,4.1703606-0.3953857,6.433754h11.7689209v9.3871155L451.5049744,55.677475z"/>
		<path class="st0" d="M750.2490234,81.963295v8.6045837c-0.3218384,0.3291702-0.6593018,0.3979568-0.9972534,0.4751129
			c-4.2269287,0.9650803-8.4698486,1.126442-12.7263184,0.2213135c-1.3582764-0.288826-2.6530151-0.7769775-3.8742676-1.4451981
			c-2.7817383-1.5221329-4.4005737-3.934433-5.3172607-6.9020004c-0.7755737-2.5107574-0.9252319-5.1020126-0.9469604-7.6925201
			c-0.0497437-5.9261551-0.0139771-11.8530045-0.0194702-17.7795639c-0.0004272-0.5148048,0.0720825-1.0375824-0.1469116-1.7109413
			h-7.9838257c-0.3614502-1.0576477-0.4328003-7.7839355-0.1500244-9.2899323
			c0.4645996-0.2995644,0.9960938-0.1426201,1.5004272-0.1666145c1.6810913-0.0799866,3.3624268,0.082283,5.0484619-0.1640701
			c2.0064087-0.2931557,3.1872559-1.4271736,3.7437134-3.2904587c0.5580444-1.8688507,0.755127-3.8084412,1.0448608-5.729393
			c0.171875-1.1398582,0.1808472-2.3084297,0.4890747-3.4528122h7.8390503v12.6297913h11.7008057
			c0.3422852,1.4946289,0.2809448,8.3429108-0.0791626,9.3788223h-11.2251587
			c-0.4627075,0.3591499-0.3657837,0.73106-0.3657227,1.0621796c0.0006714,6.2725563,0.0154419,12.5451202,0.0096436,18.8176575
			c-0.0009155,0.919487,0.1541748,1.8143768,0.3741455,2.6889954c0.6098633,2.424881,2.2337646,3.7897263,4.7191772,4.18647
			c1.8678589,0.2981644,3.7006226,0.104599,5.539856-0.1811523C748.977478,82.1378708,749.531189,82.0653305,750.2490234,81.963295z
			"/>
		<path class="st0" d="M806.0740356,91.2033463v-63.32761h11.1698608
			c0.3126831,0.9554386,0.3706055,61.9181175,0.0512695,63.3276176
			C817.295166,91.2033539,806.0740356,91.2033539,806.0740356,91.2033463z"/>
		<path class="st0" d="M532.8015137,45.8848991c0.0074463,3.4147224,0.0142822,6.6761932-0.0057983,9.8550835
			c-0.7069092,0.3280525-1.2107544,0.1467285-1.7203979,0.0884781c-1.9402466-0.2217598-3.8773804-0.2818871-5.7996216,0.1694794
			c-3.2636108,0.7663422-5.09198,2.9318581-5.8457642,6.0851326c-0.4129639,1.7276306-0.5257568,3.5037575-0.5287476,5.277256
			c-0.0124512,7.3976288-0.0032959,14.7952881-0.0095825,22.1929398c-0.0004272,0.5110703,0.0869751,1.0338821-0.1025391,1.5279465
			c-0.9649658,0.2560577-9.8464966,0.3018799-11.3027649,0.0451279V46.3418083
			c2.6898193-0.1284065,5.3057556-0.0671768,7.8616028-0.0402794c0.4639893,0.5639801,0.3534546,1.1500473,0.3950806,1.6969528
			c0.0757446,0.994854,0.206604,1.9790344,0.548645,2.9191208c0.2306519,0.6338196,0.6208496,1.049099,1.493103,0.7127647
			c3.364502-5.70261,8.6721191-6.6916847,15.0168457-5.7454681H532.8015137z"/>
		<path class="st0" d="M711.5220947,91.2248688h-11.0957031c-0.4593506-0.4999924-0.2751465-1.0898285-0.2758789-1.6263123
			c-0.0116577-9.5988159-0.0084839-19.1976471-0.0084839-28.7964745c0-4.3237991-0.0019531-8.6475983,0.0029297-12.971386
			c0.0004883-0.4667931-0.0706177-0.9475365,0.1688232-1.4721489h11.2143555
			C711.8389893,47.4416084,711.8418579,90.090744,711.5220947,91.2248688z"/>
		<path class="st0" d="M622.5509033,46.3357582h11.161438c0.2536011,0.9983444,0.3276367,43.0795708,0.0945435,44.7390556
			c-0.9205933,0.2598495-9.6886597,0.3212814-11.1925049,0.0784149
			C622.3753052,90.2195816,622.2974854,48.1934242,622.5509033,46.3357582z"/>
		<path class="st0" d="M628.3898315,40.3815155c-3.4854126-0.0006599-6.1635132-1.8772545-6.9903564-4.7640991
			c-1.1796265-4.1187782,1.4638672-8.0257835,5.7956543-8.4858627c2.6487427-0.2813244,4.9631958,0.4282417,6.6712646,2.6038284
			c2.855957,3.6375885,1.088501,9.0621414-3.3695679,10.3283463
			C629.7514038,40.2754631,628.9898071,40.4604759,628.3898315,40.3815155z"/>
		<path class="st0" d="M706.1708984,40.378624c-2.2718506,0.0448227-4.0786743-0.651741-5.5129395-2.1886787
			c-1.9124756-2.0494232-2.1780396-4.4865913-1.2553711-6.992733c0.9213867-2.5026588,2.9698486-3.7626381,5.5504761-4.0589466
			c2.6421509-0.3033752,4.9467773,0.4289284,6.6906128,2.5738907c2.5483398,3.1345921,1.6873169,8.8038311-3.4761963,10.384634
			C707.4674683,40.3110847,706.741333,40.4557495,706.1708984,40.378624z"/>
	</g>
</g>
</svg>
